# xmcd
#
# Track frame offsets:
#	150
#	9652
#	20635
#	36187
#	50442
#	64410
#	79535
#	92672
#	102897
#	116182
#	126740
#	141355
#
# Disc length: 2017 seconds
# Revision: 1
# Processed by: cddbd v1.5.2PL0 Copyright (c) Steve Scherf et al.
# Submitted via: dBpowerAMP V12.0
#
DISCID=ab07df0c
DTITLE=Nancy Moore - Local Flowers
DYEAR=1999
DGENRE=Bluegrass
TTITLE0=High Lonesome Love
TTITLE1=Your Memory Followed Me Home
TTITLE2=Local Flowers
TTITLE3=Taylor County Jail
TTITLE4=The Farm
TTITLE5=A Picture of Jesus
TTITLE6=Wings Against the Moon
TTITLE7=Joe
TTITLE8=Mama Remember
TTITLE9=Down Home Blues
TTITLE10=More to Love Than This
TTITLE11=Smoky Mountain Man
EXTD=
EXTT0=
EXTT1=
EXTT2=
EXTT3=
EXTT4=
EXTT5=
EXTT6=
EXTT7=
EXTT8=
EXTT9=
EXTT10=
EXTT11=
PLAYORDER=
